<mxfile host="app.diagrams.net" modified="2022-01-14T13:53:09.452Z" agent="5.0 (Windows NT 10.0; Win64; x64) AppleWebKit/537.36 (KHTML, like Gecko) Chrome/97.0.4692.71 Safari/537.36" etag="MgZzdhvo1tnAFQFCTHal" version="16.2.4" type="github">
  <diagram id="NVipKfoe1XjYEgO5DkjU" name="Page-1">
    <mxGraphModel dx="1234" dy="464" grid="0" gridSize="10" guides="1" tooltips="1" connect="1" arrows="1" fold="1" page="1" pageScale="1" pageWidth="850" pageHeight="1100" math="0" shadow="0">
      <root>
        <mxCell id="0" />
        <mxCell id="1" parent="0" />
        <mxCell id="aGtv4PCF4a-MKZ3wQcZ7-76" style="edgeStyle=orthogonalEdgeStyle;curved=1;rounded=0;orthogonalLoop=1;jettySize=auto;html=1;exitX=0.5;exitY=0;exitDx=0;exitDy=0;entryX=0;entryY=0.5;entryDx=0;entryDy=0;" edge="1" parent="1" source="aGtv4PCF4a-MKZ3wQcZ7-2" target="aGtv4PCF4a-MKZ3wQcZ7-4">
          <mxGeometry relative="1" as="geometry" />
        </mxCell>
        <mxCell id="aGtv4PCF4a-MKZ3wQcZ7-75" style="edgeStyle=orthogonalEdgeStyle;curved=1;rounded=0;orthogonalLoop=1;jettySize=auto;html=1;entryX=0.5;entryY=1;entryDx=0;entryDy=0;" edge="1" parent="1" source="aGtv4PCF4a-MKZ3wQcZ7-8" target="aGtv4PCF4a-MKZ3wQcZ7-2">
          <mxGeometry relative="1" as="geometry" />
        </mxCell>
        <mxCell id="aGtv4PCF4a-MKZ3wQcZ7-74" style="edgeStyle=orthogonalEdgeStyle;curved=1;rounded=0;orthogonalLoop=1;jettySize=auto;html=1;exitX=0.5;exitY=1;exitDx=0;exitDy=0;entryX=1;entryY=0.5;entryDx=0;entryDy=0;" edge="1" parent="1" source="aGtv4PCF4a-MKZ3wQcZ7-1" target="aGtv4PCF4a-MKZ3wQcZ7-3">
          <mxGeometry relative="1" as="geometry" />
        </mxCell>
        <mxCell id="aGtv4PCF4a-MKZ3wQcZ7-73" style="edgeStyle=orthogonalEdgeStyle;curved=1;rounded=0;orthogonalLoop=1;jettySize=auto;html=1;exitX=1;exitY=1;exitDx=0;exitDy=0;" edge="1" parent="1" source="aGtv4PCF4a-MKZ3wQcZ7-5" target="aGtv4PCF4a-MKZ3wQcZ7-1">
          <mxGeometry relative="1" as="geometry">
            <Array as="points">
              <mxPoint x="710" y="268" />
            </Array>
          </mxGeometry>
        </mxCell>
        <mxCell id="aGtv4PCF4a-MKZ3wQcZ7-72" style="edgeStyle=orthogonalEdgeStyle;curved=1;rounded=0;orthogonalLoop=1;jettySize=auto;html=1;exitX=1;exitY=0.5;exitDx=0;exitDy=0;entryX=0;entryY=0.5;entryDx=0;entryDy=0;" edge="1" parent="1" source="aGtv4PCF4a-MKZ3wQcZ7-4" target="aGtv4PCF4a-MKZ3wQcZ7-5">
          <mxGeometry relative="1" as="geometry" />
        </mxCell>
        <mxCell id="aGtv4PCF4a-MKZ3wQcZ7-29" value="Default values:" style="swimlane;fontStyle=0;childLayout=stackLayout;horizontal=1;startSize=30;horizontalStack=0;resizeParent=1;resizeParentMax=0;resizeLast=0;collapsible=1;marginBottom=0;" vertex="1" parent="1">
          <mxGeometry x="270" y="50" width="100" height="120" as="geometry" />
        </mxCell>
        <mxCell id="aGtv4PCF4a-MKZ3wQcZ7-30" value="busy = 1" style="text;strokeColor=none;fillColor=none;align=left;verticalAlign=middle;spacingLeft=4;spacingRight=4;overflow=hidden;points=[[0,0.5],[1,0.5]];portConstraint=eastwest;rotatable=0;" vertex="1" parent="aGtv4PCF4a-MKZ3wQcZ7-29">
          <mxGeometry y="30" width="100" height="30" as="geometry" />
        </mxCell>
        <mxCell id="aGtv4PCF4a-MKZ3wQcZ7-31" value="upt_prod =1" style="text;strokeColor=none;fillColor=none;align=left;verticalAlign=middle;spacingLeft=4;spacingRight=4;overflow=hidden;points=[[0,0.5],[1,0.5]];portConstraint=eastwest;rotatable=0;" vertex="1" parent="aGtv4PCF4a-MKZ3wQcZ7-29">
          <mxGeometry y="60" width="100" height="30" as="geometry" />
        </mxCell>
        <mxCell id="aGtv4PCF4a-MKZ3wQcZ7-32" value="clr_prod = 0" style="text;strokeColor=none;fillColor=none;align=left;verticalAlign=middle;spacingLeft=4;spacingRight=4;overflow=hidden;points=[[0,0.5],[1,0.5]];portConstraint=eastwest;rotatable=0;" vertex="1" parent="aGtv4PCF4a-MKZ3wQcZ7-29">
          <mxGeometry y="90" width="100" height="30" as="geometry" />
        </mxCell>
        <mxCell id="aGtv4PCF4a-MKZ3wQcZ7-50" value="" style="group" vertex="1" connectable="0" parent="1">
          <mxGeometry x="270" y="300" width="120" height="60" as="geometry" />
        </mxCell>
        <mxCell id="aGtv4PCF4a-MKZ3wQcZ7-47" value="" style="verticalLabelPosition=bottom;verticalAlign=top;html=1;shape=mxgraph.basic.rect;fillColor2=none;strokeWidth=1;size=20;indent=5;" vertex="1" parent="aGtv4PCF4a-MKZ3wQcZ7-50">
          <mxGeometry width="120" height="60" as="geometry" />
        </mxCell>
        <mxCell id="aGtv4PCF4a-MKZ3wQcZ7-44" value="/a_sel = 0&lt;br&gt;b_sel = 0&lt;br&gt;shift_sel = 10" style="text;html=1;strokeColor=none;fillColor=none;align=center;verticalAlign=middle;whiteSpace=wrap;rounded=0;" vertex="1" parent="aGtv4PCF4a-MKZ3wQcZ7-50">
          <mxGeometry x="10" y="5" width="100" height="50" as="geometry" />
        </mxCell>
        <mxCell id="aGtv4PCF4a-MKZ3wQcZ7-52" value="" style="group" vertex="1" connectable="0" parent="1">
          <mxGeometry x="450" y="210" width="120" height="60" as="geometry" />
        </mxCell>
        <mxCell id="aGtv4PCF4a-MKZ3wQcZ7-51" value="" style="verticalLabelPosition=bottom;verticalAlign=top;html=1;shape=mxgraph.basic.rect;fillColor2=none;strokeWidth=1;size=20;indent=5;" vertex="1" parent="aGtv4PCF4a-MKZ3wQcZ7-52">
          <mxGeometry width="120" height="60" as="geometry" />
        </mxCell>
        <mxCell id="aGtv4PCF4a-MKZ3wQcZ7-40" value="/upt_prod = 0&lt;br&gt;clr_prod = 1&lt;br&gt;busy = 0" style="text;html=1;strokeColor=none;fillColor=none;align=center;verticalAlign=middle;whiteSpace=wrap;rounded=0;" vertex="1" parent="aGtv4PCF4a-MKZ3wQcZ7-52">
          <mxGeometry x="10" y="5" width="100" height="50" as="geometry" />
        </mxCell>
        <mxCell id="aGtv4PCF4a-MKZ3wQcZ7-54" value="" style="group" vertex="1" connectable="0" parent="1">
          <mxGeometry x="640" y="290" width="120" height="60" as="geometry" />
        </mxCell>
        <mxCell id="aGtv4PCF4a-MKZ3wQcZ7-53" value="" style="verticalLabelPosition=bottom;verticalAlign=top;html=1;shape=mxgraph.basic.rect;fillColor2=none;strokeWidth=1;size=20;indent=5;" vertex="1" parent="aGtv4PCF4a-MKZ3wQcZ7-54">
          <mxGeometry width="120" height="60" as="geometry" />
        </mxCell>
        <mxCell id="aGtv4PCF4a-MKZ3wQcZ7-41" value="/a_sel = 1&lt;br&gt;b_sel = 1&lt;br&gt;shift_sel = 0" style="text;html=1;strokeColor=none;fillColor=none;align=center;verticalAlign=middle;whiteSpace=wrap;rounded=0;" vertex="1" parent="aGtv4PCF4a-MKZ3wQcZ7-54">
          <mxGeometry x="10" y="5" width="100" height="50" as="geometry" />
        </mxCell>
        <mxCell id="aGtv4PCF4a-MKZ3wQcZ7-57" value="" style="group" vertex="1" connectable="0" parent="1">
          <mxGeometry x="580" y="470" width="120" height="60" as="geometry" />
        </mxCell>
        <mxCell id="aGtv4PCF4a-MKZ3wQcZ7-55" value="" style="verticalLabelPosition=bottom;verticalAlign=top;html=1;shape=mxgraph.basic.rect;fillColor2=none;strokeWidth=1;size=20;indent=5;" vertex="1" parent="aGtv4PCF4a-MKZ3wQcZ7-57">
          <mxGeometry width="120" height="60" as="geometry" />
        </mxCell>
        <mxCell id="aGtv4PCF4a-MKZ3wQcZ7-42" value="/a_sel = 0&lt;br&gt;b_sel = 1&lt;br&gt;shift_sel = 01" style="text;html=1;strokeColor=none;fillColor=none;align=center;verticalAlign=middle;whiteSpace=wrap;rounded=0;" vertex="1" parent="aGtv4PCF4a-MKZ3wQcZ7-57">
          <mxGeometry x="10" y="5" width="100" height="50" as="geometry" />
        </mxCell>
        <mxCell id="aGtv4PCF4a-MKZ3wQcZ7-61" value="" style="group" vertex="1" connectable="0" parent="1">
          <mxGeometry x="310" y="480" width="120" height="60" as="geometry" />
        </mxCell>
        <mxCell id="aGtv4PCF4a-MKZ3wQcZ7-56" value="" style="verticalLabelPosition=bottom;verticalAlign=top;html=1;shape=mxgraph.basic.rect;fillColor2=none;strokeWidth=1;size=20;indent=5;" vertex="1" parent="aGtv4PCF4a-MKZ3wQcZ7-61">
          <mxGeometry width="120" height="60" as="geometry" />
        </mxCell>
        <mxCell id="aGtv4PCF4a-MKZ3wQcZ7-43" value="/a_sel = 1&lt;br&gt;b_sel = 0&lt;br&gt;shift_sel = 01" style="text;html=1;strokeColor=none;fillColor=none;align=center;verticalAlign=middle;whiteSpace=wrap;rounded=0;" vertex="1" parent="aGtv4PCF4a-MKZ3wQcZ7-61">
          <mxGeometry x="10" y="5" width="100" height="50" as="geometry" />
        </mxCell>
        <mxCell id="aGtv4PCF4a-MKZ3wQcZ7-62" value="" style="group" vertex="1" connectable="0" parent="1">
          <mxGeometry x="240" y="370" width="80" height="80" as="geometry" />
        </mxCell>
        <mxCell id="aGtv4PCF4a-MKZ3wQcZ7-2" value="" style="ellipse;whiteSpace=wrap;html=1;aspect=fixed;" vertex="1" parent="aGtv4PCF4a-MKZ3wQcZ7-62">
          <mxGeometry width="80" height="80" as="geometry" />
        </mxCell>
        <mxCell id="aGtv4PCF4a-MKZ3wQcZ7-7" value="s_4" style="text;html=1;strokeColor=none;fillColor=none;align=center;verticalAlign=middle;whiteSpace=wrap;rounded=0;" vertex="1" parent="aGtv4PCF4a-MKZ3wQcZ7-62">
          <mxGeometry x="10" y="25" width="60" height="30" as="geometry" />
        </mxCell>
        <mxCell id="aGtv4PCF4a-MKZ3wQcZ7-63" value="" style="group" vertex="1" connectable="0" parent="1">
          <mxGeometry x="470" y="520" width="80" height="80" as="geometry" />
        </mxCell>
        <mxCell id="aGtv4PCF4a-MKZ3wQcZ7-3" value="" style="ellipse;whiteSpace=wrap;html=1;aspect=fixed;" vertex="1" parent="aGtv4PCF4a-MKZ3wQcZ7-63">
          <mxGeometry width="80" height="80" as="geometry" />
        </mxCell>
        <mxCell id="aGtv4PCF4a-MKZ3wQcZ7-8" value="s_3" style="text;html=1;strokeColor=none;fillColor=none;align=center;verticalAlign=middle;whiteSpace=wrap;rounded=0;" vertex="1" parent="aGtv4PCF4a-MKZ3wQcZ7-63">
          <mxGeometry x="10" y="25" width="60" height="30" as="geometry" />
        </mxCell>
        <mxCell id="aGtv4PCF4a-MKZ3wQcZ7-64" value="" style="group" vertex="1" connectable="0" parent="1">
          <mxGeometry x="670" y="370" width="80" height="80" as="geometry" />
        </mxCell>
        <mxCell id="aGtv4PCF4a-MKZ3wQcZ7-1" value="" style="ellipse;whiteSpace=wrap;html=1;aspect=fixed;" vertex="1" parent="aGtv4PCF4a-MKZ3wQcZ7-64">
          <mxGeometry width="80" height="80" as="geometry" />
        </mxCell>
        <mxCell id="aGtv4PCF4a-MKZ3wQcZ7-9" value="s_2" style="text;html=1;strokeColor=none;fillColor=none;align=center;verticalAlign=middle;whiteSpace=wrap;rounded=0;" vertex="1" parent="aGtv4PCF4a-MKZ3wQcZ7-64">
          <mxGeometry x="10" y="25" width="60" height="30" as="geometry" />
        </mxCell>
        <mxCell id="aGtv4PCF4a-MKZ3wQcZ7-65" value="" style="group" vertex="1" connectable="0" parent="1">
          <mxGeometry x="620" y="200" width="80" height="80" as="geometry" />
        </mxCell>
        <mxCell id="aGtv4PCF4a-MKZ3wQcZ7-5" value="" style="ellipse;whiteSpace=wrap;html=1;aspect=fixed;" vertex="1" parent="aGtv4PCF4a-MKZ3wQcZ7-65">
          <mxGeometry width="80" height="80" as="geometry" />
        </mxCell>
        <mxCell id="aGtv4PCF4a-MKZ3wQcZ7-10" value="s_1" style="text;html=1;strokeColor=none;fillColor=none;align=center;verticalAlign=middle;whiteSpace=wrap;rounded=0;" vertex="1" parent="aGtv4PCF4a-MKZ3wQcZ7-65">
          <mxGeometry x="10" y="25" width="60" height="30" as="geometry" />
        </mxCell>
        <mxCell id="aGtv4PCF4a-MKZ3wQcZ7-66" value="" style="group" vertex="1" connectable="0" parent="1">
          <mxGeometry x="330" y="200" width="80" height="80" as="geometry" />
        </mxCell>
        <mxCell id="aGtv4PCF4a-MKZ3wQcZ7-78" style="edgeStyle=orthogonalEdgeStyle;curved=1;rounded=0;orthogonalLoop=1;jettySize=auto;html=1;exitX=-0.008;exitY=0.367;exitDx=0;exitDy=0;exitPerimeter=0;entryX=0;entryY=0;entryDx=0;entryDy=0;fontStyle=1" edge="1" parent="aGtv4PCF4a-MKZ3wQcZ7-66" source="aGtv4PCF4a-MKZ3wQcZ7-4" target="aGtv4PCF4a-MKZ3wQcZ7-4">
          <mxGeometry relative="1" as="geometry">
            <mxPoint x="10" as="targetPoint" />
            <Array as="points">
              <mxPoint x="-1" y="40" />
              <mxPoint x="-140" y="40" />
              <mxPoint x="-140" y="-20" />
              <mxPoint x="12" y="-20" />
            </Array>
          </mxGeometry>
        </mxCell>
        <mxCell id="aGtv4PCF4a-MKZ3wQcZ7-4" value="" style="ellipse;whiteSpace=wrap;html=1;aspect=fixed;" vertex="1" parent="aGtv4PCF4a-MKZ3wQcZ7-66">
          <mxGeometry width="80" height="80" as="geometry" />
        </mxCell>
        <mxCell id="aGtv4PCF4a-MKZ3wQcZ7-6" value="s_0" style="text;html=1;strokeColor=none;fillColor=none;align=center;verticalAlign=middle;whiteSpace=wrap;rounded=0;" vertex="1" parent="aGtv4PCF4a-MKZ3wQcZ7-66">
          <mxGeometry x="10" y="25" width="60" height="30" as="geometry" />
        </mxCell>
        <mxCell id="aGtv4PCF4a-MKZ3wQcZ7-67" style="edgeStyle=orthogonalEdgeStyle;curved=1;rounded=0;orthogonalLoop=1;jettySize=auto;html=1;exitX=0.52;exitY=0.978;exitDx=0;exitDy=0;entryX=0.5;entryY=0;entryDx=0;entryDy=0;exitPerimeter=0;" edge="1" parent="1" source="aGtv4PCF4a-MKZ3wQcZ7-32" target="aGtv4PCF4a-MKZ3wQcZ7-4">
          <mxGeometry relative="1" as="geometry" />
        </mxCell>
        <mxCell id="aGtv4PCF4a-MKZ3wQcZ7-49" value="" style="group" vertex="1" connectable="0" parent="1">
          <mxGeometry x="160" y="200" width="120" height="60" as="geometry" />
        </mxCell>
        <mxCell id="aGtv4PCF4a-MKZ3wQcZ7-48" value="" style="verticalLabelPosition=bottom;verticalAlign=top;html=1;shape=mxgraph.basic.rect;fillColor2=none;strokeWidth=1;size=20;indent=5;" vertex="1" parent="aGtv4PCF4a-MKZ3wQcZ7-49">
          <mxGeometry width="120" height="60" as="geometry" />
        </mxCell>
        <mxCell id="aGtv4PCF4a-MKZ3wQcZ7-45" value="/start = 0&lt;br&gt;upt_prod = 0&lt;br&gt;busy = 0" style="text;html=1;strokeColor=none;fillColor=none;align=center;verticalAlign=middle;whiteSpace=wrap;rounded=0;" vertex="1" parent="aGtv4PCF4a-MKZ3wQcZ7-49">
          <mxGeometry x="10" y="5" width="100" height="50" as="geometry" />
        </mxCell>
      </root>
    </mxGraphModel>
  </diagram>
</mxfile>
